<?xml version="1.0" encoding="UTF-8"?> <svg xmlns="http://www.w3.org/2000/svg" width="64" height="64" viewBox="0 0 64 64" fill="none"><path d="M40.9175 1.75H32.4295C32.4295 1.75 32.2763 6.57612 31.4594 9.52489C30.4614 13.1275 28.5249 15.264 26.4933 17.5055C24.9229 19.2381 23.2958 21.0334 22.0013 23.6169C21.3654 24.886 20.7272 26.0405 20.121 27.137C17.934 31.0929 16.1638 34.2949 16.4235 39.4096L16.4261 39.4602C18.4549 39.1754 20.4908 39.0044 22.5343 38.8768C25.923 38.6652 28.2665 38.5188 31.0877 38.9781C32.5944 39.2234 33.6507 39.5237 34.4021 39.8219C35.1485 40.118 35.6343 40.425 35.9721 40.7249C35.9771 40.7293 35.9043 40.6638 35.8346 40.6011L37.0093 41.6578L37.1834 59.0678C39.1934 58.925 41.3166 58.5163 43.5852 57.875C44.5288 57.6082 45.407 57.2953 46.225 56.9384L38.3334 56.5H47.1568C48.2962 55.9229 49.3088 55.252 50.2116 54.4945L39.3334 54H50.7722C51.4646 53.3584 52.0875 52.6612 52.6499 51.9123L39.0001 51H53.2891C53.7091 50.3575 54.0913 49.6817 54.4405 48.9746L38.0001 48H54.8929C55.1094 47.5036 55.3118 46.9933 55.5016 46.4698L40.6667 45H55.9922C56.1459 44.4994 56.2901 43.9882 56.4261 43.467L42.3334 42H56.782C56.8303 41.786 56.8774 41.5704 56.9235 41.3534C56.9644 41.1608 57.0022 40.9701 57.0372 40.7813L41.0001 39H57.2861C57.325 38.5806 57.3487 38.1701 57.3579 37.7676L50.8334 37L38.3334 36H57.3043C57.2713 35.6115 57.2246 35.2298 57.1651 34.854L50.3334 34L37.0001 33H56.7598C56.7019 32.7921 56.6401 32.5856 56.5748 32.3802L47.8334 31L34.6667 30H55.6473C55.5545 29.7969 55.4587 29.5943 55.36 29.3918L47.3334 28.5L31.6667 27H54.0748C53.9659 26.812 53.8552 26.6236 53.7429 26.4344L45.3334 25.5L28.3334 24H52.2487C52.1514 23.8444 52.0535 23.688 51.9549 23.5306C51.8322 23.3346 51.7096 23.1385 51.5873 22.9426L45.8334 22.5L26.3334 21H50.3723C50.2281 20.771 50.0837 20.5423 49.9387 20.314L43.8334 19.5L29.6667 18H48.432C48.2618 17.7466 48.0901 17.494 47.9166 17.2424L43.8334 16.5L33.0001 15H46.2939C46.1439 14.8014 45.9952 14.6024 45.8482 14.4029L41.3334 13.5L34.0001 12H44.19C43.9134 11.5649 43.6486 11.1256 43.3978 10.681L40.3334 10L35.0001 9H42.5343C42.2979 8.48785 42.0825 7.96733 41.8916 7.43688L38.8334 7L34.0001 6H41.4432C41.311 5.49947 41.2016 4.98957 41.1173 4.46912L37.8334 4L33.0001 3H40.9502C40.9232 2.59018 40.9119 2.17368 40.9175 1.75Z" fill="#242424"></path><path d="M33.8981 43.0625C33.8981 43.0625 33.2728 42.5 30.5855 42.0625C28.1264 41.6622 26.1381 41.7852 22.6573 42.0005L22.6476 42.0011C22.3275 42.0209 21.9948 42.0415 21.648 42.0625C17.5228 42.3125 13.7731 43.0625 13.7731 43.0625C13.7731 43.0625 13.4606 45.75 13.5855 49.5C13.6559 51.6147 13.627 52.6561 13.5997 53.6442C13.5786 54.4083 13.5583 55.1405 13.5855 56.3125C13.6478 59 14.023 61.8125 14.023 61.8125C14.023 61.8125 13.2105 62.125 19.4606 62.25C25.7108 62.375 34.0856 61.8125 34.0856 61.8125L34.0671 59.962L24.6667 59H34.0575L34.0372 56.9671L22.6667 56H34.0275L34.012 54.4518L24.3334 53H33.9975L33.9822 51.4649L29.3334 51L22.3334 50H33.9675L34.0001 48.6667L28.0001 48L20.3334 47H33.9375L34.0001 46L25.3334 45.0625L18.6667 44H34.0001L33.8981 43.0625Z" fill="#242424"></path><path d="M12.3355 48.125L12.5855 45.0625C12.5855 45.0625 7.66899 44.5625 5.23149 46.375C2.79399 48.1875 2.10648 49.9375 2.79398 53.375C3.32545 56.0323 5.53861 57.3634 7.91898 58.1875C9.54398 58.75 12.5855 58.4375 12.5855 58.4375L12.3355 55.125C12.3355 55.125 10.6063 55.0625 9.16881 54.625C7.73131 54.1875 6.10631 53.25 5.85631 51.8125C5.60631 50.375 6.10631 49.125 7.73131 48.5625C9.35631 48 12.3355 48.125 12.3355 48.125Z" fill="#242424"></path></svg> 