<?xml version="1.0" encoding="UTF-8"?> <svg xmlns="http://www.w3.org/2000/svg" width="219" height="40" viewBox="0 0 219 40" fill="none"><g clip-path="url(#clip0_14135_21466)"><path d="M25.1841 0H19.6138C19.6138 0 19.5133 3.16714 18.9772 5.10227C18.3223 7.46646 17.0514 8.8686 15.7182 10.3396C14.6877 11.4766 13.6198 12.6547 12.7704 14.3501C12.3531 15.183 11.9342 15.9406 11.5364 16.6602C10.1012 19.2563 8.93947 21.3576 9.1099 24.7141L9.11161 24.7473C10.443 24.5604 11.779 24.4482 13.1201 24.3644C15.344 24.2256 16.8818 24.1295 18.7333 24.431C19.7221 24.5919 20.4152 24.789 20.9084 24.9847C21.3982 25.179 21.717 25.3805 21.9387 25.5773C21.9419 25.5802 21.8942 25.5372 21.8485 25.4961L22.6193 26.1895L22.7336 37.6148C24.0527 37.5211 25.446 37.2529 26.9347 36.832C27.554 36.657 28.1303 36.4516 28.6671 36.2174L23.4883 35.9297H29.2786C30.0263 35.551 30.6909 35.1107 31.2833 34.6136L24.1445 34.2891H31.6513C32.1056 33.868 32.5144 33.4105 32.8835 32.919L23.9258 32.3203H33.303C33.5786 31.8987 33.8294 31.4552 34.0586 30.9912L23.2695 30.3516H34.3555C34.4975 30.0258 34.6304 29.6909 34.7549 29.3474L25.0195 28.3828H35.0768C35.1777 28.0543 35.2724 27.7188 35.3616 27.3768L26.1133 26.4141H35.5952C35.6269 26.2736 35.6578 26.1321 35.688 25.9897C35.7149 25.8633 35.7397 25.7382 35.7626 25.6143L25.2383 24.4453H35.926C35.9515 24.1701 35.9671 23.9007 35.9731 23.6365L31.6914 23.1328L23.4883 22.4766H35.9379C35.9163 22.2216 35.8856 21.9711 35.8466 21.7245L31.3633 21.1641L22.6133 20.5078H35.5806C35.5426 20.3714 35.5021 20.2359 35.4592 20.1011L29.7227 19.1953L21.082 18.5391H34.8505C34.7896 18.4058 34.7267 18.2728 34.662 18.14L29.3945 17.5547L19.1133 16.5703H33.8186C33.7471 16.447 33.6745 16.3233 33.6007 16.1991L28.082 15.5859L16.9258 14.6016H32.6202L32.4274 14.2936C32.3468 14.1649 32.2664 14.0362 32.1861 13.9076L15.6133 12.6328H31.3888C31.2942 12.4825 31.1994 12.3324 31.1043 12.1827L27.0977 11.6484L17.8008 10.6641H30.1155C30.0038 10.4977 29.8911 10.332 29.7773 10.1669L27.0977 9.67969L19.9883 8.69531H28.7124C28.6139 8.56497 28.5163 8.43439 28.4198 8.3035L25.457 7.71094L20.6445 6.72656H27.3317C27.1502 6.44106 26.9764 6.15277 26.8118 5.86095L24.8008 5.41406L21.3008 4.75781H26.2451C26.09 4.42172 25.9486 4.08012 25.8233 3.73202L23.8164 3.44531L20.6445 2.78906H25.5291C25.4423 2.46059 25.3705 2.12597 25.3152 1.78443L23.1602 1.47656L19.9883 0.820313H25.2056C25.1878 0.551365 25.1804 0.278039 25.1841 0Z" fill="#242424"></path><path d="M20.5776 27.1113C20.5776 27.1113 20.1673 26.7422 18.4037 26.4551C16.7899 26.1924 15.4851 26.2731 13.2008 26.4144L13.1944 26.4148C12.9844 26.4278 12.7661 26.4413 12.5385 26.4551C9.83133 26.6191 7.3706 27.1113 7.3706 27.1113C7.3706 27.1113 7.16552 28.875 7.24744 31.3359C7.29364 32.7237 7.27473 33.4072 7.25678 34.0556C7.2429 34.557 7.22961 35.0375 7.24744 35.8066C7.28835 37.5703 7.53455 39.416 7.53455 39.416C7.53455 39.416 7.00136 39.6211 11.103 39.7031C15.2047 39.7852 20.7007 39.416 20.7007 39.416L20.6885 38.2016L14.5195 37.5703H20.6822L20.6689 36.2362L13.207 35.6016H20.6625L20.6524 34.5856L14.3008 33.6328H20.6428L20.6328 32.6254L17.582 32.3203L12.9883 31.6641H20.6232L20.6445 30.7891L16.707 30.3516L11.6758 29.6953H20.6035L20.6445 29.0391L14.957 28.4238L10.582 27.7266H20.6445L20.5776 27.1113Z" fill="#242424"></path><path d="M6.59119 28.4238L6.42713 30.4336C6.42713 30.4336 4.47206 30.3516 3.40565 30.7207C2.33925 31.0898 2.01112 31.9102 2.17518 32.8535C2.33924 33.7969 3.40565 34.4121 4.34901 34.6992C5.29237 34.9863 6.42713 35.0274 6.42713 35.0274L6.59119 37.2012C6.59119 37.2012 4.59522 37.4063 3.52881 37.0371C1.96669 36.4963 0.514304 35.6228 0.165527 33.8789C-0.285644 31.6231 0.165535 30.4746 1.76514 29.2852C3.36475 28.0957 6.59119 28.4238 6.59119 28.4238Z" fill="#242424"></path><path fill-rule="evenodd" clip-rule="evenodd" d="M120.238 32.0266C121.47 32.7966 122.856 33.1815 124.396 33.1815C125.188 33.1815 125.958 33.0606 126.706 32.8186C127.476 32.5546 128.147 32.2135 128.719 31.7955C129.211 31.4356 129.622 31.043 129.952 30.6179L130.006 32.8515H133.933V8.43155H129.874V17.4604C129.594 17.1468 129.264 16.8542 128.884 16.5825C128.268 16.1205 127.564 15.7575 126.772 15.4935C126.002 15.2295 125.199 15.0975 124.363 15.0975C122.823 15.0975 121.437 15.4935 120.205 16.2855C118.995 17.0555 118.038 18.1225 117.334 19.4865C116.63 20.8505 116.278 22.4015 116.278 24.1395C116.278 25.8995 116.63 27.4615 117.334 28.8255C118.06 30.1675 119.028 31.2346 120.238 32.0266ZM127.696 29.0236C126.97 29.5075 126.134 29.7495 125.188 29.7495C124.242 29.7495 123.406 29.5075 122.68 29.0236C121.954 28.5396 121.382 27.8795 120.964 27.0435C120.568 26.2075 120.37 25.2395 120.37 24.1395C120.37 23.0615 120.568 22.1045 120.964 21.2685C121.382 20.4105 121.954 19.7505 122.68 19.2885C123.406 18.8046 124.242 18.5625 125.188 18.5625C126.134 18.5625 126.97 18.8046 127.696 19.2885C128.422 19.7505 128.983 20.4105 129.379 21.2685C129.797 22.1045 130.006 23.0615 130.006 24.1395C130.006 25.2395 129.797 26.2075 129.379 27.0435C128.983 27.8795 128.422 28.5396 127.696 29.0236Z" fill="#242424"></path><path d="M42.8931 9.75155L50.0871 32.8515H53.2221L58.6323 19.3421L64.2771 32.8515H67.3791L74.6061 9.75155H70.1511L66.0921 23.3145C65.9381 23.8865 65.8061 24.3595 65.6961 24.7335C65.6081 25.0855 65.5421 25.3935 65.4981 25.6575C65.4571 25.8828 65.4162 26.1176 65.3752 26.3619C65.2806 25.9511 65.1675 25.5403 65.0361 25.1295C64.8601 24.5575 64.6621 23.9635 64.4421 23.3475L60.6471 13.3815H56.9841L53.0901 23.3475C52.9581 23.7215 52.8261 24.1285 52.6941 24.5685C52.5841 24.9865 52.4521 25.5145 52.2981 26.1525C52.2645 26.2917 52.2282 26.4404 52.1894 26.5984C52.1712 26.4954 52.1524 26.3908 52.1331 26.2845C52.0451 25.7785 51.9461 25.2726 51.8361 24.7666C51.7261 24.2605 51.6051 23.7985 51.4731 23.3806L47.3811 9.75155H42.8931Z" fill="#242424"></path><path fill-rule="evenodd" clip-rule="evenodd" d="M79.844 32.0266C81.208 32.7966 82.759 33.1815 84.497 33.1815C86.213 33.1815 87.753 32.7966 89.117 32.0266C90.481 31.2346 91.548 30.1565 92.318 28.7925C93.11 27.4285 93.506 25.8775 93.506 24.1395C93.506 22.4015 93.11 20.8505 92.318 19.4865C91.548 18.1225 90.481 17.0555 89.117 16.2855C87.753 15.4935 86.213 15.0975 84.497 15.0975C82.759 15.0975 81.208 15.4935 79.844 16.2855C78.48 17.0555 77.402 18.1225 76.61 19.4865C75.818 20.8505 75.422 22.4015 75.422 24.1395C75.422 25.8775 75.818 27.4285 76.61 28.7925C77.402 30.1565 78.48 31.2346 79.844 32.0266ZM87.005 28.8585C86.279 29.3425 85.443 29.5845 84.497 29.5845C83.551 29.5845 82.693 29.3425 81.923 28.8585C81.175 28.3745 80.592 27.7255 80.174 26.9115C79.756 26.0975 79.547 25.1735 79.547 24.1395C79.547 23.1055 79.756 22.1815 80.174 21.3675C80.592 20.5315 81.175 19.8825 81.923 19.4205C82.693 18.9366 83.551 18.6945 84.497 18.6945C85.443 18.6945 86.279 18.9366 87.005 19.4205C87.753 19.8825 88.336 20.5205 88.754 21.3345C89.194 22.1485 89.403 23.0835 89.381 24.1395C89.403 25.1735 89.194 26.0975 88.754 26.9115C88.336 27.7255 87.753 28.3745 87.005 28.8585Z" fill="#242424"></path><path fill-rule="evenodd" clip-rule="evenodd" d="M104.925 33.1815C103.187 33.1815 101.636 32.7966 100.272 32.0266C98.9078 31.2346 97.8298 30.1565 97.0378 28.7925C96.2458 27.4285 95.8498 25.8775 95.8498 24.1395C95.8498 22.4015 96.2458 20.8505 97.0378 19.4865C97.8298 18.1225 98.9078 17.0555 100.272 16.2855C101.636 15.4935 103.187 15.0975 104.925 15.0975C106.641 15.0975 108.181 15.4935 109.545 16.2855C110.909 17.0555 111.976 18.1225 112.746 19.4865C113.538 20.8505 113.934 22.4015 113.934 24.1395C113.934 25.8775 113.538 27.4285 112.746 28.7925C111.976 30.1565 110.909 31.2346 109.545 32.0266C108.181 32.7966 106.641 33.1815 104.925 33.1815ZM104.925 29.5845C105.871 29.5845 106.707 29.3425 107.433 28.8585C108.181 28.3745 108.764 27.7255 109.182 26.9115C109.622 26.0975 109.831 25.1735 109.809 24.1395C109.831 23.0835 109.622 22.1485 109.182 21.3345C108.764 20.5205 108.181 19.8825 107.433 19.4205C106.707 18.9366 105.871 18.6945 104.925 18.6945C103.979 18.6945 103.121 18.9366 102.351 19.4205C101.603 19.8825 101.02 20.5315 100.602 21.3675C100.184 22.1815 99.9748 23.1055 99.9748 24.1395C99.9748 25.1735 100.184 26.0975 100.602 26.9115C101.02 27.7255 101.603 28.3745 102.351 28.8585C103.121 29.3425 103.979 29.5845 104.925 29.5845Z" fill="#242424"></path><path d="M143.16 9.75155L150.385 21.5102L157.713 9.75155H161.574V32.8515H157.317V24.1726C157.317 22.1925 157.361 20.4105 157.449 18.8265C157.494 18.1822 157.55 17.5397 157.616 16.899L151.344 26.5815H149.166L143.063 16.932C143.117 17.5024 143.16 18.0789 143.193 18.6615C143.303 20.2015 143.358 22.0385 143.358 24.1726V32.8515H139.101V9.75155H143.16Z" fill="#242424"></path><path fill-rule="evenodd" clip-rule="evenodd" d="M169.565 31.9935C170.731 32.7855 172.029 33.1815 173.459 33.1815C174.295 33.1815 175.076 33.0495 175.802 32.7855C176.55 32.5215 177.221 32.1805 177.815 31.7625C178.381 31.3584 178.854 30.9079 179.234 30.4109V32.8515H183.359V15.4605H179.267V17.921C178.936 17.4129 178.529 16.9557 178.046 16.5495C177.496 16.0875 176.858 15.7355 176.132 15.4935C175.406 15.2295 174.603 15.0975 173.723 15.0975C172.205 15.0975 170.841 15.4825 169.631 16.2525C168.421 17.0225 167.464 18.0895 166.76 19.4535C166.056 20.8175 165.704 22.3685 165.704 24.1065C165.704 25.8445 166.056 27.3955 166.76 28.7596C167.464 30.1236 168.399 31.2015 169.565 31.9935ZM177.089 28.8916C176.363 29.3535 175.527 29.5845 174.581 29.5845C173.635 29.5845 172.799 29.3535 172.073 28.8916C171.369 28.4296 170.819 27.7915 170.423 26.9775C170.027 26.1415 169.829 25.1845 169.829 24.1065C169.829 23.0505 170.027 22.1155 170.423 21.3015C170.819 20.4875 171.369 19.8495 172.073 19.3875C172.799 18.9255 173.635 18.6945 174.581 18.6945C175.527 18.6945 176.363 18.9255 177.089 19.3875C177.815 19.8495 178.376 20.4875 178.772 21.3015C179.19 22.1155 179.399 23.0505 179.399 24.1065C179.399 25.1845 179.19 26.1415 178.772 26.9775C178.376 27.7915 177.815 28.4296 177.089 28.8916Z" fill="#242424"></path><path d="M191.893 15.4605L191.928 18.4306C192.13 18.0589 192.371 17.7069 192.652 17.3745C193.246 16.6705 193.928 16.1205 194.698 15.7245C195.49 15.3065 196.315 15.0975 197.173 15.0975C197.547 15.0975 197.899 15.1305 198.229 15.1965C198.581 15.2625 198.867 15.3395 199.087 15.4275L197.998 19.8825C197.756 19.7505 197.459 19.6405 197.107 19.5525C196.755 19.4646 196.403 19.4205 196.051 19.4205C195.501 19.4205 194.973 19.5306 194.467 19.7505C193.983 19.9485 193.554 20.2346 193.18 20.6085C192.806 20.9825 192.509 21.4226 192.289 21.9285C192.091 22.4125 191.992 22.9625 191.992 23.5785V32.8515H187.9V15.4605H191.893Z" fill="#242424"></path><path d="M216.481 33.2146C215.689 33.2146 215.073 32.9836 214.633 32.5215C214.215 32.0595 214.006 31.4105 214.006 30.5745C214.006 29.8045 214.226 29.1775 214.666 28.6936C215.128 28.1875 215.733 27.9345 216.481 27.9345C217.273 27.9345 217.878 28.1656 218.296 28.6276C218.736 29.0676 218.956 29.7165 218.956 30.5745C218.956 31.3445 218.725 31.9825 218.263 32.4885C217.823 32.9725 217.229 33.2146 216.481 33.2146Z" fill="#242424"></path><path d="M204.15 19.2225V32.8515H208.209V19.2225H212.004V15.4605H208.209V11.0385H204.15V15.4605H200.718V19.2225H204.15Z" fill="#242424"></path></g><defs><clipPath id="clip0_14135_21466"><rect width="219" height="40" fill="white"></rect></clipPath></defs></svg> 